<svg id="kity_svg_6" xmlns="http://www.w3.org/2000/svg" xmlns:xlink="http://www.w3.org/1999/xlink" version="1.1" width="1032" height="629" style="background: rgb(251, 251, 251); visibility: visible;" viewBox="0 0 1032 629"><defs id="kity_defs_7"><linearGradient id="kity_linearGradient_17" x1="0" y1="0" x2="0" y2="1"><stop id="kity_stop_18" offset="0" stop-color="rgb(255, 255, 255)"></stop><stop id="kity_stop_19" offset="1" stop-color="rgb(204, 204, 204)"></stop></linearGradient><marker id="kity_marker_2" orient="auto" refX="6" refY="0" viewBox="-7 -7 14 14" markerWidth="7" markerHeight="7" markerUnits="userSpaceOnUse"><path id="kity_path_3" fill="rgb(115, 161, 191)" stroke="none" d="M6,0A6,6,0,1,1,-6,0A6,6,0,1,1,6,0"></path></marker></defs><g id="kity_g_8"><g id="minder1" text-rendering="optimize-speed"><g id="minder_connect_group1"><path id="kity_path_31" fill="none" stroke="rgb(115, 161, 191)" stroke-width="1" d="M516.5000190585852,60.50000651180744v30h-459.5V110.50000651180744"></path><path id="kity_path_33" fill="none" stroke="rgb(115, 161, 191)" stroke-width="1" d="M516.5000190585852,60.50000651180744v30h-345V110.50000651180744"></path><path id="kity_path_35" fill="none" stroke="rgb(115, 161, 191)" stroke-width="1" d="M516.5000190585852,60.50000651180744v30h-196.5V110.50000651180744"></path><path id="kity_path_37" fill="none" stroke="rgb(115, 161, 191)" stroke-width="1" d="M516.5000190585852,60.50000651180744v30h-54V110.50000651180744"></path><path id="kity_path_39" fill="none" stroke="rgb(115, 161, 191)" stroke-width="1" d="M516.5000190585852,60.50000651180744v30h62.5V110.50000651180744"></path><path id="kity_path_41" fill="none" stroke="rgb(115, 161, 191)" stroke-width="1" d="M554.5000190585852,136.50000651180744V182.50000651180744L574.5000190585852,182.50000651180744"></path><path id="kity_path_43" fill="none" stroke="rgb(115, 161, 191)" stroke-width="1" d="M554.5000190585852,136.50000651180744V234.50000651180744L574.5000190585852,234.50000651180744"></path><path id="kity_path_45" fill="none" stroke="rgb(115, 161, 191)" stroke-width="1" d="M554.5000190585852,136.50000651180744V286.50000651180744L574.5000190585852,286.50000651180744"></path><path id="kity_path_47" fill="none" stroke="rgb(115, 161, 191)" stroke-width="1" d="M554.5000190585852,136.50000651180744V338.50000651180744L574.5000190585852,338.50000651180744"></path><path id="kity_path_49" fill="none" stroke="rgb(115, 161, 191)" stroke-width="1" d="M554.5000190585852,136.50000651180744V390.50000651180744L574.5000190585852,390.50000651180744"></path><path id="kity_path_51" fill="none" stroke="rgb(115, 161, 191)" stroke-width="1" d="M516.5000190585852,60.50000651180744v30h208V110.50000651180744"></path><path id="kity_path_53" fill="none" stroke="rgb(115, 161, 191)" stroke-width="1" d="M714.5000190585852,136.50000651180744V182.50000651180744L734.5000190585852,182.50000651180744"></path><path id="kity_path_55" fill="none" stroke="rgb(115, 161, 191)" stroke-width="1" d="M714.5000190585852,136.50000651180744V234.50000651180744L734.5000190585852,234.50000651180744"></path><path id="kity_path_57" fill="none" stroke="rgb(115, 161, 191)" stroke-width="1" d="M714.5000190585852,136.50000651180744V286.50000651180744L734.5000190585852,286.50000651180744"></path><path id="kity_path_59" fill="none" stroke="rgb(115, 161, 191)" stroke-width="1" d="M714.5000190585852,136.50000651180744V338.50000651180744L734.5000190585852,338.50000651180744"></path><path id="kity_path_61" fill="none" stroke="rgb(115, 161, 191)" stroke-width="1" d="M714.5000190585852,136.50000651180744V390.50000651180744L734.5000190585852,390.50000651180744"></path><path id="kity_path_63" fill="none" stroke="rgb(115, 161, 191)" stroke-width="1" d="M714.5000190585852,136.50000651180744V442.50000651180744L734.5000190585852,442.50000651180744"></path><path id="kity_path_65" fill="none" stroke="rgb(115, 161, 191)" stroke-width="1" d="M714.5000190585852,136.50000651180744V494.50000651180744L734.5000190585852,494.50000651180744"></path><path id="kity_path_67" fill="none" stroke="rgb(115, 161, 191)" stroke-width="1" d="M714.5000190585852,136.50000651180744V546.5000065118074L734.5000190585852,546.5000065118074"></path><path id="kity_path_69" fill="none" stroke="rgb(115, 161, 191)" stroke-width="1" d="M714.5000190585852,136.50000651180744V598.5000065118074L734.5000190585852,598.5000065118074"></path><path id="kity_path_71" fill="none" stroke="rgb(115, 161, 191)" stroke-width="1" d="M516.5000190585852,60.50000651180744v30h362V110.50000651180744"></path><path id="kity_path_73" fill="none" stroke="rgb(115, 161, 191)" stroke-width="1" d="M516.5000190585852,60.50000651180744v30h466V110.50000651180744"></path></g><g id="minder_node1"><path id="node_outline1" fill="rgb(115, 161, 191)" stroke="rgb(115, 161, 191)" d="M478.50001905858517,20.50000651180744h75a5,5,0,0,1,5,5v30a5,5,0,0,1,-5,5h-75a5,5,0,0,1,-5,-5v-30a5,5,0,0,1,5,-5z" stroke-width="3"></path><g id="node_text1" fill="white"><text id="kity_text_22" text-rendering="inherit" font-size="16" dy=".8em" y="30.100006344914433" x="497.50001905858517">boot</text></g></g><g id="kity_g_12"><path id="kity_path_13" fill="none" stroke="none" d="M497.50001905858517,40.50000651180744h0v0h0z"></path></g><g id="kity_g_14"><path id="kity_path_15" fill="none" stroke="none" d="M497.50001905858517,40.50000651180744h0v0h0z"></path><path id="kity_path_16" fill="none" stroke="none"></path></g><g id="minder_node2"><g id="node_expander1" display="none" style="cursor: pointer;"><path id="kity_path_141" fill="white" stroke="gray" d="M62.500005915760994,103.50000838935375A6,6,0,1,1,50.500005915760994,103.50000838935375A6,6,0,1,1,62.500005915760994,103.50000838935375"></path><path id="kity_path_142" fill="none" stroke="gray"></path></g><path id="node_outline2" fill="rgb(238, 243, 246)" stroke="rgb(115, 161, 191)" d="M23.500005438923836,110.5000089854002h66a3,3,0,0,1,3,3v20a3,3,0,0,1,-3,3h-66a3,3,0,0,1,-3,-3v-20a3,3,0,0,1,3,-3z" stroke-width="1"></path><g id="node_text2" fill="black"><text id="kity_text_75" text-rendering="inherit" font-size="14" dy=".8em" y="114.40000901818276" x="40.500005438923836">docs</text></g></g><g id="minder_node3"><g id="node_expander2" display="none" style="cursor: pointer;"><path id="kity_path_144" fill="white" stroke="gray" d="M177.0000093281269,103.50000838935375A6,6,0,1,1,165.0000093281269,103.50000838935375A6,6,0,1,1,177.0000093281269,103.50000838935375"></path><path id="kity_path_145" fill="none" stroke="gray"></path></g><path id="node_outline3" fill="rgb(238, 243, 246)" stroke="rgb(115, 161, 191)" d="M135.50000877678394,110.5000089854002h71a3,3,0,0,1,3,3v20a3,3,0,0,1,-3,3h-71a3,3,0,0,1,-3,-3v-20a3,3,0,0,1,3,-3z" stroke-width="1"></path><g id="node_text3" fill="black"><text id="kity_text_77" text-rendering="inherit" font-size="14" dy=".8em" y="114.40000901818276" x="152.50000877678394">blobs</text></g></g><g id="minder_node4"><g id="node_expander3" display="none" style="cursor: pointer;"><path id="kity_path_147" fill="white" stroke="gray" d="M325.5000137537718,103.50000838935375A6,6,0,1,1,313.5000137537718,103.50000838935375A6,6,0,1,1,325.5000137537718,103.50000838935375"></path><path id="kity_path_148" fill="none" stroke="gray"></path></g><path id="node_outline4" fill="rgb(238, 243, 246)" stroke="rgb(115, 161, 191)" d="M252.50001226365566,110.5000089854002h134a3,3,0,0,1,3,3v20a3,3,0,0,1,-3,3h-134a3,3,0,0,1,-3,-3v-20a3,3,0,0,1,3,-3z" stroke-width="1"></path><g id="node_text4" fill="black"><text id="kity_text_79" text-rendering="inherit" font-size="14" dy=".8em" y="114.40000901818276" x="269.50001226365566">generated-test</text></g></g><g id="minder_node5"><g id="node_expander4" display="none" style="cursor: pointer;"><path id="kity_path_150" fill="white" stroke="gray" d="M468.0000180006027,103.50000838935375A6,6,0,1,1,456.0000180006027,103.50000838935375A6,6,0,1,1,468.0000180006027,103.50000838935375"></path><path id="kity_path_151" fill="none" stroke="gray"></path></g><path id="node_outline5" fill="rgb(238, 243, 246)" stroke="rgb(115, 161, 191)" d="M432.5000176280737,110.5000089854002h59a3,3,0,0,1,3,3v20a3,3,0,0,1,-3,3h-59a3,3,0,0,1,-3,-3v-20a3,3,0,0,1,3,-3z" stroke-width="1"></path><g id="node_text5" fill="black"><text id="kity_text_81" text-rendering="inherit" font-size="14" dy=".8em" y="114.40000901818276" x="449.5000176280737">test</text></g></g><g id="minder_node6"><g id="node_expander10" style="cursor: pointer;"><path id="kity_path_168" fill="white" stroke="gray" d="M584.5000214725733,103.50000838935375A6,6,0,1,1,572.5000214725733,103.50000838935375A6,6,0,1,1,584.5000214725733,103.50000838935375"></path><path id="kity_path_169" fill="none" stroke="gray" d="M574.0000214725733,103.50000838935375L583.0000214725733,103.50000838935375"></path></g><path id="node_outline11" fill="rgb(238, 243, 246)" stroke="rgb(115, 161, 191)" d="M537.5000207573175,110.5000089854002h82a3,3,0,0,1,3,3v20a3,3,0,0,1,-3,3h-82a3,3,0,0,1,-3,-3v-20a3,3,0,0,1,3,-3z" stroke-width="1"></path><g id="node_text11" fill="black"><text id="kity_text_93" text-rendering="inherit" font-size="14" dy=".8em" y="114.40000901818276" x="554.5000207573175">vender</text></g></g><g id="minder_node7"><g id="node_expander5" display="none" style="cursor: pointer;"><path id="kity_path_153" fill="white" stroke="gray" d="M574.50002117455,182.50001074373722A6,6,0,1,1,562.50002117455,182.50001074373722A6,6,0,1,1,574.50002117455,182.50001074373722"></path><path id="kity_path_154" fill="none" stroke="gray"></path></g><path id="node_outline6" fill="none" stroke="none" d="M579.5000216513872,171.50001074373722h48a5,5,0,0,1,5,5v12a5,5,0,0,1,-5,5h-48a5,5,0,0,1,-5,-5v-12a5,5,0,0,1,5,-5z"></path><g id="node_text6" fill="black"><text id="kity_text_83" text-rendering="inherit" font-size="12" dy=".8em" y="174.70001081724962" x="584.5000216513872">cmock</text></g></g><g id="minder_node8"><g id="node_expander6" display="none" style="cursor: pointer;"><path id="kity_path_156" fill="white" stroke="gray" d="M574.50002117455,234.50001229345798A6,6,0,1,1,562.50002117455,234.50001229345798A6,6,0,1,1,574.50002117455,234.50001229345798"></path><path id="kity_path_157" fill="none" stroke="gray"></path></g><path id="node_outline7" fill="none" stroke="none" d="M579.5000216513872,223.50001229345798h47a5,5,0,0,1,5,5v12a5,5,0,0,1,-5,5h-47a5,5,0,0,1,-5,-5v-12a5,5,0,0,1,5,-5z"></path><g id="node_text7" fill="black"><text id="kity_text_85" text-rendering="inherit" font-size="12" dy=".8em" y="226.70001236697038" x="584.5000216513872">CMSIS</text></g></g><g id="minder_node9"><g id="node_expander7" display="none" style="cursor: pointer;"><path id="kity_path_159" fill="white" stroke="gray" d="M574.50002117455,286.50001384317875A6,6,0,1,1,562.50002117455,286.50001384317875A6,6,0,1,1,574.50002117455,286.50001384317875"></path><path id="kity_path_160" fill="none" stroke="gray"></path></g><path id="node_outline8" fill="none" stroke="none" d="M579.5000216513872,275.50001384317875h66a5,5,0,0,1,5,5v12a5,5,0,0,1,-5,5h-66a5,5,0,0,1,-5,-5v-12a5,5,0,0,1,5,-5z"></path><g id="node_text8" fill="black"><text id="kity_text_87" text-rendering="inherit" font-size="12" dy=".8em" y="278.70001391669115" x="584.5000216513872">FreeRTOS</text></g></g><g id="minder_node10"><g id="node_expander8" display="none" style="cursor: pointer;"><path id="kity_path_162" fill="white" stroke="gray" d="M574.50002117455,338.5000153928995A6,6,0,1,1,562.50002117455,338.5000153928995A6,6,0,1,1,574.50002117455,338.5000153928995"></path><path id="kity_path_163" fill="none" stroke="gray"></path></g><path id="node_outline9" fill="none" stroke="none" d="M579.5000216513872,327.5000153928995h70a5,5,0,0,1,5,5v12a5,5,0,0,1,-5,5h-70a5,5,0,0,1,-5,-5v-12a5,5,0,0,1,5,-5z"></path><g id="node_text9" fill="black"><text id="kity_text_89" text-rendering="inherit" font-size="12" dy=".8em" y="330.7000154664119" x="584.5000216513872">libdw1000</text></g></g><g id="minder_node11"><g id="node_expander9" display="none" style="cursor: pointer;"><path id="kity_path_165" fill="white" stroke="gray" d="M574.50002117455,390.5000169426203A6,6,0,1,1,562.50002117455,390.5000169426203A6,6,0,1,1,574.50002117455,390.5000169426203"></path><path id="kity_path_166" fill="none" stroke="gray"></path></g><path id="node_outline10" fill="none" stroke="none" d="M579.5000216513872,379.5000169426203h39a5,5,0,0,1,5,5v12a5,5,0,0,1,-5,5h-39a5,5,0,0,1,-5,-5v-12a5,5,0,0,1,5,-5z"></path><g id="node_text10" fill="black"><text id="kity_text_91" text-rendering="inherit" font-size="12" dy=".8em" y="382.7000170161327" x="584.5000216513872">unity</text></g></g><g id="minder_node12"><g id="node_expander20" style="cursor: pointer;"><path id="kity_path_198" fill="white" stroke="gray" d="M730.0000258088112,103.50000838935375A6,6,0,1,1,718.0000258088112,103.50000838935375A6,6,0,1,1,730.0000258088112,103.50000838935375"></path><path id="kity_path_199" fill="none" stroke="gray" d="M719.5000258088112,103.50000838935375L728.5000258088112,103.50000838935375"></path></g><path id="node_outline21" fill="rgb(238, 243, 246)" stroke="rgb(115, 161, 191)" d="M697.5000255256891,110.5000089854002h53a3,3,0,0,1,3,3v20a3,3,0,0,1,-3,3h-53a3,3,0,0,1,-3,-3v-20a3,3,0,0,1,3,-3z" stroke-width="1"></path><g id="node_text21" fill="black"><text id="kity_text_113" text-rendering="inherit" font-size="14" dy=".8em" y="114.40000901818276" x="714.5000255256891">src</text></g></g><g id="minder_node13"><g id="node_expander11" display="none" style="cursor: pointer;"><path id="kity_path_171" fill="white" stroke="gray" d="M734.5000259429216,182.50001074373722A6,6,0,1,1,722.5000259429216,182.50001074373722A6,6,0,1,1,734.5000259429216,182.50001074373722"></path><path id="kity_path_172" fill="none" stroke="gray"></path></g><path id="node_outline12" fill="none" stroke="none" d="M739.5000264197588,171.50001074373722h46a5,5,0,0,1,5,5v12a5,5,0,0,1,-5,5h-46a5,5,0,0,1,-5,-5v-12a5,5,0,0,1,5,-5z"></path><g id="node_text12" fill="black"><text id="kity_text_95" text-rendering="inherit" font-size="12" dy=".8em" y="174.70001081724962" x="744.5000264197588">config</text></g></g><g id="minder_node14"><g id="node_expander12" display="none" style="cursor: pointer;"><path id="kity_path_174" fill="white" stroke="gray" d="M734.5000259429216,234.50001229345798A6,6,0,1,1,722.5000259429216,234.50001229345798A6,6,0,1,1,734.5000259429216,234.50001229345798"></path><path id="kity_path_175" fill="none" stroke="gray"></path></g><path id="node_outline13" fill="none" stroke="none" d="M739.5000264197588,223.50001229345798h38a5,5,0,0,1,5,5v12a5,5,0,0,1,-5,5h-38a5,5,0,0,1,-5,-5v-12a5,5,0,0,1,5,-5z"></path><g id="node_text13" fill="black"><text id="kity_text_97" text-rendering="inherit" font-size="12" dy=".8em" y="226.70001236697038" x="744.5000264197588">deck</text></g></g><g id="minder_node15"><g id="node_expander13" display="none" style="cursor: pointer;"><path id="kity_path_177" fill="white" stroke="gray" d="M734.5000259429216,286.50001384317875A6,6,0,1,1,722.5000259429216,286.50001384317875A6,6,0,1,1,734.5000259429216,286.50001384317875"></path><path id="kity_path_178" fill="none" stroke="gray"></path></g><path id="node_outline14" fill="none" stroke="none" d="M739.5000264197588,275.50001384317875h49a5,5,0,0,1,5,5v12a5,5,0,0,1,-5,5h-49a5,5,0,0,1,-5,-5v-12a5,5,0,0,1,5,-5z"></path><g id="node_text14" fill="black"><text id="kity_text_99" text-rendering="inherit" font-size="12" dy=".8em" y="278.70001391669115" x="744.5000264197588">drivers</text></g></g><g id="minder_node16"><g id="node_expander14" display="none" style="cursor: pointer;"><path id="kity_path_180" fill="white" stroke="gray" d="M734.5000259429216,338.5000153928995A6,6,0,1,1,722.5000259429216,338.5000153928995A6,6,0,1,1,734.5000259429216,338.5000153928995"></path><path id="kity_path_181" fill="none" stroke="gray"></path></g><path id="node_outline15" fill="none" stroke="none" d="M739.5000264197588,327.5000153928995h27a5,5,0,0,1,5,5v12a5,5,0,0,1,-5,5h-27a5,5,0,0,1,-5,-5v-12a5,5,0,0,1,5,-5z"></path><g id="node_text15" fill="black"><text id="kity_text_101" text-rendering="inherit" font-size="12" dy=".8em" y="330.7000154664119" x="744.5000264197588">hal</text></g></g><g id="minder_node17"><g id="node_expander15" display="none" style="cursor: pointer;"><path id="kity_path_183" fill="white" stroke="gray" d="M734.5000259429216,390.5000169426203A6,6,0,1,1,722.5000259429216,390.5000169426203A6,6,0,1,1,734.5000259429216,390.5000169426203"></path><path id="kity_path_184" fill="none" stroke="gray"></path></g><path id="node_outline16" fill="none" stroke="none" d="M739.5000264197588,379.5000169426203h28a5,5,0,0,1,5,5v12a5,5,0,0,1,-5,5h-28a5,5,0,0,1,-5,-5v-12a5,5,0,0,1,5,-5z"></path><g id="node_text16" fill="black"><text id="kity_text_103" text-rendering="inherit" font-size="12" dy=".8em" y="382.7000170161327" x="744.5000264197588">init</text></g></g><g id="minder_node18"><g id="node_expander16" display="none" style="cursor: pointer;"><path id="kity_path_186" fill="white" stroke="gray" d="M734.5000259429216,442.50001849234104A6,6,0,1,1,722.5000259429216,442.50001849234104A6,6,0,1,1,734.5000259429216,442.50001849234104"></path><path id="kity_path_187" fill="none" stroke="gray"></path></g><path id="node_outline17" fill="none" stroke="none" d="M739.5000264197588,431.50001849234104h24a5,5,0,0,1,5,5v12a5,5,0,0,1,-5,5h-24a5,5,0,0,1,-5,-5v-12a5,5,0,0,1,5,-5z"></path><g id="node_text17" fill="black"><text id="kity_text_105" text-rendering="inherit" font-size="12" dy=".8em" y="434.70001856585344" x="744.5000264197588">lib</text></g></g><g id="minder_node19"><g id="node_expander17" display="none" style="cursor: pointer;"><path id="kity_path_189" fill="white" stroke="gray" d="M734.5000259429216,494.5000200420618A6,6,0,1,1,722.5000259429216,494.5000200420618A6,6,0,1,1,734.5000259429216,494.5000200420618"></path><path id="kity_path_190" fill="none" stroke="gray"></path></g><path id="node_outline18" fill="none" stroke="none" d="M739.5000264197588,483.5000200420618h60a5,5,0,0,1,5,5v12a5,5,0,0,1,-5,5h-60a5,5,0,0,1,-5,-5v-12a5,5,0,0,1,5,-5z"></path><g id="node_text18" fill="black"><text id="kity_text_107" text-rendering="inherit" font-size="12" dy=".8em" y="486.7000201155742" x="744.5000264197588">modules</text></g></g><g id="minder_node20"><g id="node_expander18" display="none" style="cursor: pointer;"><path id="kity_path_192" fill="white" stroke="gray" d="M734.5000259429216,546.5000215917826A6,6,0,1,1,722.5000259429216,546.5000215917826A6,6,0,1,1,734.5000259429216,546.5000215917826"></path><path id="kity_path_193" fill="none" stroke="gray"></path></g><path id="node_outline19" fill="none" stroke="none" d="M739.5000264197588,535.5000215917826h60a5,5,0,0,1,5,5v12a5,5,0,0,1,-5,5h-60a5,5,0,0,1,-5,-5v-12a5,5,0,0,1,5,-5z"></path><g id="node_text19" fill="black"><text id="kity_text_109" text-rendering="inherit" font-size="12" dy=".8em" y="538.700021665295" x="744.5000264197588">platform</text></g></g><g id="minder_node21"><g id="node_expander19" display="none" style="cursor: pointer;"><path id="kity_path_195" fill="white" stroke="gray" d="M734.5000259429216,598.5000231415033A6,6,0,1,1,722.5000259429216,598.5000231415033A6,6,0,1,1,734.5000259429216,598.5000231415033"></path><path id="kity_path_196" fill="none" stroke="gray"></path></g><path id="node_outline20" fill="none" stroke="none" d="M739.5000264197588,587.5000231415033h34a5,5,0,0,1,5,5v12a5,5,0,0,1,-5,5h-34a5,5,0,0,1,-5,-5v-12a5,5,0,0,1,5,-5z"></path><g id="node_text20" fill="black"><text id="kity_text_111" text-rendering="inherit" font-size="12" dy=".8em" y="590.7000232150158" x="744.5000264197588">utils</text></g></g><g id="minder_node22"><g id="node_expander21" display="none" style="cursor: pointer;"><path id="kity_path_201" fill="white" stroke="gray" d="M884.0000303983688,103.50000838935375A6,6,0,1,1,872.0000303983688,103.50000838935375A6,6,0,1,1,884.0000303983688,103.50000838935375"></path><path id="kity_path_202" fill="none" stroke="gray"></path></g><path id="node_outline22" fill="rgb(238, 243, 246)" stroke="rgb(115, 161, 191)" d="M847.5000299960375,110.5000089854002h61a3,3,0,0,1,3,3v20a3,3,0,0,1,-3,3h-61a3,3,0,0,1,-3,-3v-20a3,3,0,0,1,3,-3z" stroke-width="1"></path><g id="node_text22" fill="black"><text id="kity_text_115" text-rendering="inherit" font-size="14" dy=".8em" y="114.40000901818276" x="864.5000299960375">tool</text></g></g><g id="minder_node23"><g id="node_expander22" display="none" style="cursor: pointer;"><path id="kity_path_204" fill="white" stroke="gray" d="M988.0000334978104,103.50000838935375A6,6,0,1,1,976.0000334978104,103.50000838935375A6,6,0,1,1,988.0000334978104,103.50000838935375"></path><path id="kity_path_205" fill="none" stroke="gray"></path></g><path id="node_outline23" fill="rgb(238, 243, 246)" stroke="rgb(115, 161, 191)" d="M954.500033184886,110.5000089854002h55a3,3,0,0,1,3,3v20a3,3,0,0,1,-3,3h-55a3,3,0,0,1,-3,-3v-20a3,3,0,0,1,3,-3z" stroke-width="1"></path><g id="node_text23" fill="black"><text id="kity_text_117" text-rendering="inherit" font-size="14" dy=".8em" y="114.40000901818276" x="971.500033184886">bin</text></g></g></g></g></svg>